<svg xmlns="http://www.w3.org/2000/svg" viewBox="0 0 22 24"><title>bell</title><path d="M21.78,16.67c-.95-1.08-2.19-2.59-2.19-4.1V7.23A7.56,7.56,0,0,0,11.75,0,7.54,7.54,0,0,0,4.37,7.67v4.89c0,1.51-1.4,2.93-2.24,4.06s-1.4,1.76-1,2.59,1.3.78,2,.78H7.71a4.25,4.25,0,0,0,8.48,0h4.64c.5,0,1.6,0,2-.78S22.68,17.64,21.78,16.67ZM12.1,22.38a2.54,2.54,0,0,1-2.64-2.44H14.6A2.58,2.58,0,0,1,12.1,22.38ZM2.92,18.57v-.24a8.16,8.16,0,0,1,.6-.78c.95-1.22,2.29-3,2.29-5V7.67A6.49,6.49,0,0,1,12,1.27a6.54,6.54,0,0,1,6.29,6.4v4.89a8,8,0,0,0,2.24,5.13,5.73,5.73,0,0,1,.55.93S3,18.57,2.92,18.57Z" transform="translate(-1 0)"/></svg>