<svg xmlns="http://www.w3.org/2000/svg" viewBox="0 0 24 24" width="14px" height="14px"><defs><style>.a{fill:rgb(34,34,34)}</style></defs><title>home</title><path class="a" d="M22.52,8.16V21.9a.72.72,0,0,1-.69.72H2.21a.69.69,0,0,1-.69-.72V8.16a1.09,1.09,0,0,1,.54-.61l9.88-5.77a.93.93,0,0,1,.74,0L22.37,7.5a1,1,0,0,1,.15.66ZM.88,6.22A1.54,1.54,0,0,0,0,7.45V21.9A2.11,2.11,0,0,0,2.11,24H21.88A2.15,2.15,0,0,0,24,21.9V7.39a1.32,1.32,0,0,0-.54-1.23L12.93.19a1.42,1.42,0,0,0-1.43,0Zm14,6.49H13.42a.69.69,0,0,1-.69-.72V10.56a.72.72,0,0,1,.69-.72h1.43a.69.69,0,0,1,.69.72V12a.72.72,0,0,1-.69.72Zm0,4.24H13.42a.69.69,0,0,1-.69-.72V14.8a.72.72,0,0,1,.69-.72h1.43a.69.69,0,0,1,.69.72v1.43a.72.72,0,0,1-.69.72Zm-4.23-4.24H9.19A.69.69,0,0,1,8.51,12V10.56a.72.72,0,0,1,.69-.72h1.43a.69.69,0,0,1,.69.72V12a.72.72,0,0,1-.69.72Zm0,4.24H9.19a.69.69,0,0,1-.69-.72V14.8a.72.72,0,0,1,.69-.72h1.43a.69.69,0,0,1,.69.72v1.43a.72.72,0,0,1-.69.72Z"/></svg>